<?xml version="1.0" encoding="utf-8"?>
<!-- Generator: Adobe Illustrator 26.3.1, SVG Export Plug-In . SVG Version: 6.00 Build 0)  -->
<svg version="1.1" id="Layer_1" xmlns="http://www.w3.org/2000/svg" xmlns:xlink="http://www.w3.org/1999/xlink" x="0px" y="0px"
	 width="28px" height="28px" viewBox="0 0 28 28" style="enable-background:new 0 0 28 28;" xml:space="preserve">
<g>
	<path style="fill:#F47362;" d="M13.8,25.8c-0.2-0.2-0.4-0.3-0.5-0.5c-1.4-2-2.8-4-4.2-6C8,17.7,7,15.9,6.3,14
		c-0.4-1.2-0.7-2.4-0.7-3.7c0.1-3.6,2.5-6.8,5.9-7.8c4.6-1.3,9.2,1.3,10.4,5.9c0.5,1.7,0.3,3.5-0.3,5.2c-0.6,1.9-1.5,3.6-2.6,5.2
		c-1.2,1.9-2.5,3.7-3.8,5.6c-0.2,0.3-0.4,0.7-0.7,1c-0.2,0.2-0.4,0.3-0.5,0.5C14.1,25.8,13.9,25.8,13.8,25.8z M14,23.9
		C14,23.9,14.1,23.8,14,23.9c1.2-1.8,2.4-3.4,3.6-5.1c1.1-1.6,2.1-3.3,2.7-5.1c0.5-1.3,0.8-2.6,0.6-4c-0.5-3.7-3.8-6.4-7.5-6
		c-2.6,0.3-4.5,1.6-5.6,4C6.9,9.3,6.9,11,7.4,12.8c0.5,1.6,1.2,3.1,2.1,4.6C10.9,19.6,12.4,21.7,14,23.9C14,23.8,14,23.9,14,23.9z"
		/>
	<path style="fill:#F47362;" d="M9.8,10.5c0-2.3,1.9-4.2,4.2-4.2c2.3,0,4.2,1.9,4.2,4.2c0,2.3-1.9,4.2-4.2,4.2
		C11.7,14.6,9.8,12.8,9.8,10.5z M14,13.3c1.5,0,2.8-1.3,2.8-2.8c0-1.5-1.2-2.8-2.8-2.8c-1.5,0-2.8,1.2-2.8,2.8
		C11.2,12,12.5,13.3,14,13.3z"/>
</g>
</svg>
