<?xml version="1.0" encoding="utf-8"?>
<!-- Generator: Adobe Illustrator 26.3.1, SVG Export Plug-In . SVG Version: 6.00 Build 0)  -->
<svg version="1.1" id="Layer_1" xmlns="http://www.w3.org/2000/svg" xmlns:xlink="http://www.w3.org/1999/xlink" x="0px" y="0px"
	 width="28px" height="28px" viewBox="0 0 28 28" style="enable-background:new 0 0 28 28;" xml:space="preserve">
<g>
	<path style="fill:#F47362;" d="M5.1,19.9C7.4,18,9.7,16,12,14c-2.3-2-4.6-4-6.9-5.9c0,0-0.1,0-0.1,0c0,0.3,0,0.6,0,0.9
		c0,0.2,0,0.3,0,0.5c0,0.3-0.3,0.5-0.6,0.5C4,9.9,3.7,9.7,3.7,9.4c0-0.5,0-1.1,0.1-1.6c0.2-1.1,1.3-1.9,2.5-1.9c3.6,0,7.2,0,10.8,0
		c2.8,0,5.6,0,8.4,0c1.3,0,2.2,0.8,2.5,2C28,8.1,28,8.3,28,8.5c0,3.6,0,7.3,0,10.9c0,1.4-0.8,2.4-2.1,2.6c-0.2,0-0.4,0-0.5,0
		c-6.3,0-12.7,0-19,0c-1.6,0-2.6-1.1-2.6-2.7c0-0.2,0-0.5,0-0.7c0-0.4,0.3-0.6,0.6-0.7c0.4,0,0.6,0.2,0.6,0.6c0,0.4,0,0.8,0,1.2
		C5,19.9,5,19.9,5.1,19.9z M6.1,7.2C6,7.2,6,7.2,6.1,7.2c0,0.1,0.1,0.2,0.2,0.2c3,2.6,6.1,5.2,9.1,7.8c0.4,0.3,0.7,0.3,1.1,0
		c3-2.6,6.1-5.2,9.1-7.8c0.1,0,0.1-0.1,0.2-0.2C19.1,7.2,12.6,7.2,6.1,7.2z M18.8,14.8c-0.1,0.1-0.2,0.1-0.2,0.2
		c-0.5,0.4-1,0.9-1.5,1.3c-0.7,0.6-1.7,0.6-2.4,0c-0.5-0.4-0.9-0.8-1.4-1.2c-0.1-0.1-0.2-0.2-0.3-0.3c-2.3,2-4.6,4-7,6
		c6.6,0,13.2,0,19.8,0C23.4,18.8,21.1,16.8,18.8,14.8z M26.7,19.9c0.1-0.3,0.1-11.6,0-11.9c-2.3,2-4.6,3.9-6.9,5.9
		C22.1,16,24.4,18,26.7,19.9z"/>
	<path style="fill:#F47362;" d="M3.4,16.2c-0.9,0-1.8,0-2.7,0c-0.3,0-0.5-0.1-0.7-0.4c-0.2-0.3,0-0.7,0.4-0.8c0.1,0,0.3,0,0.4,0
		c1.7,0,3.5,0,5.2,0c0.1,0,0.2,0,0.2,0c0.4,0,0.6,0.3,0.6,0.7c0,0.3-0.3,0.6-0.6,0.6c-0.4,0-0.8,0-1.2,0C4.5,16.2,4,16.2,3.4,16.2z"
		/>
	<path style="fill:#F47362;" d="M4.4,11.8c0.6,0,1.1,0,1.7,0c0.5,0,0.7,0.2,0.7,0.6c0,0.4-0.3,0.6-0.7,0.6c-1.2,0-2.3,0-3.5,0
		c-0.5,0-0.7-0.3-0.7-0.6c0-0.4,0.3-0.6,0.7-0.6C3.2,11.8,3.8,11.8,4.4,11.8z"/>
</g>
</svg>
