<?xml version="1.0" encoding="utf-8"?>
<!-- Generator: Adobe Illustrator 26.3.1, SVG Export Plug-In . SVG Version: 6.00 Build 0)  -->
<svg version="1.1" id="Layer_1" xmlns="http://www.w3.org/2000/svg" xmlns:xlink="http://www.w3.org/1999/xlink" x="0px" y="0px"
	 width="24.3px" height="29.8px" viewBox="0 0 24.3 29.8" style="enable-background:new 0 0 24.3 29.8;" xml:space="preserve">
<path d="M11.8,29.3c-2.3,0-4.6,0.1-6.9,0c-2.8-0.1-4.8-1.9-4.6-4.7c0.2-2.5,0.6-5.1,1.5-7.4c1.1-2.8,3.6-3.4,6.3-1.9
	c2.5,1.4,4.9,1.8,7.5,0.2c2.8-1.7,5.6-1.2,6.8,1.8c1,2.4,1.4,5.2,1.4,7.9c0,2.5-2.1,4-4.9,4.1C16.6,29.4,14.2,29.3,11.8,29.3z
	 M12.2,27.7c2.3,0,4.6,0,6.9,0c1.8,0,3.3-0.9,3.2-2.8c-0.1-2.3-0.6-4.7-1.4-6.9c-0.7-1.8-2.3-2.5-4.3-1.1c-2.5,1.7-5.3,1.9-8.1,0.5
	c-3.7-1.8-5.1-1.1-6.2,2.9c-0.3,1.2-0.3,2.4-0.5,3.6c-0.3,2.5,1,3.6,3.4,3.7C7.6,27.7,9.9,27.7,12.2,27.7z"/>
<path d="M18.9,7.3c0,3.8-3,6.9-6.8,7c-3.6,0.1-6.9-3.1-6.9-6.8c0-4.1,2.8-7,6.9-7.1C15.7,0.3,18.9,3.5,18.9,7.3z M12,12.5
	c2.9,0,5.3-2.4,5.3-5.2c0-2.7-2.5-5.2-5.3-5.1c-2.8,0-5.1,2.4-5.1,5.3C6.9,10.3,9.2,12.5,12,12.5z"/>
</svg>
