<?xml version="1.0" encoding="utf-8"?>
<!-- Generator: Adobe Illustrator 26.3.1, SVG Export Plug-In . SVG Version: 6.00 Build 0)  -->
<svg version="1.1" id="Layer_1" xmlns="http://www.w3.org/2000/svg" xmlns:xlink="http://www.w3.org/1999/xlink" x="0px" y="0px"
	 width="28px" height="28px" viewBox="0 0 28 28" style="enable-background:new 0 0 28 28;" xml:space="preserve">
<path style="fill:#F47362;" d="M19.9,25.9c-0.3-0.1-0.7-0.1-1-0.2c-1.3-0.2-2.5-0.7-3.7-1.3c-1.9-0.9-3.7-2.1-5.3-3.5
	c-3.2-2.9-5.8-6.2-7.2-10.3c-0.4-1-0.6-2.1-0.5-3.1c0-1,0.4-2,1.1-2.7c0.7-0.7,1.3-1.3,2-2c1.1-1,2.3-1,3.4,0.1
	c1.1,1,2.2,2.1,3.2,3.2c0.8,0.9,0.8,2.1,0,3.1c-0.6,0.6-1.2,1.2-1.8,1.9c-0.1,0.1-0.1,0.2-0.1,0.4c0.6,1.3,1.5,2.4,2.5,3.4
	c1,1.1,2.1,2,3.3,2.8c0.3,0.2,0.7,0.4,1,0.6c0.1,0.1,0.2,0.1,0.3,0c0.5-0.5,1-1,1.6-1.6c0.4-0.4,0.9-0.7,1.4-0.8
	c0.8-0.1,1.5,0.1,2,0.7c1,1,2,2,3,3c1.1,1.1,1.2,2.3,0.2,3.5c-0.7,0.8-1.5,1.5-2.2,2.3c-0.5,0.5-1.2,0.8-2,0.9c-0.1,0-0.1,0-0.2,0
	C20.5,25.9,20.2,25.9,19.9,25.9z M20.4,24.7c0.7,0,1.4-0.2,1.9-0.7c0.7-0.7,1.4-1.4,2-2.1c0.5-0.5,0.5-1.1,0-1.7
	c-1-1.1-2.1-2.1-3.2-3.2c-0.4-0.4-1-0.4-1.5-0.1c-0.1,0.1-0.2,0.2-0.3,0.3c-0.6,0.6-1.1,1.2-1.7,1.7c-0.4,0.4-0.8,0.4-1.3,0.2
	c-0.3-0.2-0.7-0.3-1-0.5c-1.5-0.9-2.9-2.1-4.1-3.4c-1-1.1-1.9-2.3-2.6-3.7c-0.3-0.6-0.2-1,0.3-1.4c0.6-0.5,1.1-1.1,1.7-1.7
	c0.7-0.7,0.7-1.2,0-1.9c0,0,0,0,0,0c-1-1-1.9-1.9-2.9-2.9C7.7,3.6,7.5,3.5,7.3,3.4c-0.5-0.2-1,0-1.4,0.4C5.3,4.4,4.7,4.9,4.2,5.5
	c-0.3,0.3-0.5,0.6-0.6,1C3.2,7.3,3.3,8.1,3.5,8.9c0.3,1.5,0.9,3,1.7,4.4c1.3,2.4,3.1,4.6,5.1,6.4c2.1,1.9,4.4,3.3,6.9,4.4
	C18.2,24.4,19.3,24.7,20.4,24.7z"/>
</svg>
