<?xml version="1.0" encoding="utf-8"?>
<!-- Generator: Adobe Illustrator 26.0.1, SVG Export Plug-In . SVG Version: 6.00 Build 0)  -->
<svg version="1.1" id="Layer_1" xmlns="http://www.w3.org/2000/svg" xmlns:xlink="http://www.w3.org/1999/xlink" x="0px" y="0px"
	 width="50px" height="50px" viewBox="0 0 50 50" style="enable-background:new 0 0 50 50;" xml:space="preserve">
<style type="text/css">
	.st0{fill:#CCC;}
</style>
<path class="st0" d="M28.7,47.1c-3.4,0-6.5,0-9.8,0c0-7.4,0-14.7,0-22.1c-1.7,0-3.2,0-4.9,0c0-2.5,0-4.9,0-7.4c1.6,0,3.2,0,4.9,0
	c0-0.5,0-0.9,0-1.4c0.1-2.4,0.1-4.8,0.5-7.1c0.5-3.1,2.6-5,5.6-5.6c2.5-0.5,5.1-0.5,7.6-0.6c1.1-0.1,2.2,0,3.4,0c0,2.5,0,4.9,0,7.4
	c-0.8,0-1.6,0-2.4,0c-0.5,0-1.1,0-1.6,0c-2.8,0.1-3.3,0.6-3.3,3.4c0,1.3,0,2.5,0,3.9c2.5,0,4.9,0,7.4,0c-0.3,2.5-0.6,4.9-0.8,7.4
	c-2.2,0-4.3,0-6.5,0C28.7,32.4,28.7,39.7,28.7,47.1z"/>
</svg>
