<?xml version="1.0" encoding="utf-8"?>
<!-- Generator: Adobe Illustrator 26.3.1, SVG Export Plug-In . SVG Version: 6.00 Build 0)  -->
<svg version="1.1" id="Layer_1" xmlns="http://www.w3.org/2000/svg" xmlns:xlink="http://www.w3.org/1999/xlink" x="0px" y="0px"
	 width="24.1px" height="27.9px" viewBox="0 0 24.1 27.9" style="enable-background:new 0 0 24.1 27.9;" xml:space="preserve">
<path d="M12.6,0.4c0.4,0.1,0.7,0.2,1.1,0.3c2,0.7,3.4,2.5,3.4,4.6c0,0.3,0,0.6,0,1c0.1,0,0.2,0,0.3,0c1.1,0,2.3,0,3.4,0
	c0.6,0,0.9,0.2,1,0.8c0.2,1.8,0.4,3.6,0.6,5.4c0.2,1.8,0.4,3.5,0.6,5.3c0.2,1.8,0.4,3.5,0.6,5.3c0.1,1.1,0.2,2.2,0.4,3.3
	c0.1,0.6-0.1,1-0.6,1.1c-0.1,0-0.2,0-0.3,0c-7.2,0-14.4,0-21.6,0c-0.7,0-1-0.4-0.9-1.1c0.2-2,0.4-3.9,0.6-5.9
	c0.2-2.1,0.4-4.2,0.7-6.3c0.2-1.9,0.4-3.9,0.6-5.8c0-0.5,0.1-0.9,0.2-1.4c0.1-0.5,0.4-0.8,0.9-0.8c1.2,0,2.4,0,3.6,0
	c0.1,0,0.1,0,0.3,0c0-0.3,0-0.5,0-0.8c0-0.8,0.2-1.6,0.5-2.3c0.8-1.5,2.1-2.4,3.8-2.7c0.1,0,0.1,0,0.1,0C11.9,0.4,12.2,0.4,12.6,0.4
	z M22.1,25.9c0-0.1,0-0.1,0-0.1c-0.3-2.8-0.6-5.5-0.9-8.3c-0.3-3.1-0.7-6.2-1-9.3c0-0.2-0.1-0.3-0.3-0.3c-0.9,0-1.7,0-2.6,0
	c-0.1,0-0.2,0-0.3,0c0,0.1,0,0.2,0,0.3c0,0.5,0,1,0,1.5c0,0.5-0.4,0.8-0.8,0.8c-0.4,0-0.8-0.3-0.8-0.8c0-0.3,0-0.6,0-0.9
	c0-0.3,0-0.6,0-0.9c-2.3,0-4.5,0-6.8,0c0,0.1,0,0.2,0,0.3c0,0.5,0,1,0,1.4c0,0.5-0.3,0.8-0.8,0.8c-0.5,0-0.8-0.3-0.8-0.9
	c0-0.4,0-0.7,0-1.1c0-0.2,0-0.4,0-0.7c-1.1,0-2.1,0-3.1,0c-0.6,6-1.3,12-1.9,18C8.7,25.9,15.4,25.9,22.1,25.9z M8.7,6.2
	c2.2,0,4.5,0,6.7,0c0-0.3,0-0.7,0-1c-0.1-1.4-0.8-2.4-2.1-3c-1.3-0.5-2.5-0.3-3.6,0.6C8.8,3.8,8.6,4.9,8.7,6.2z"/>
</svg>
