<?xml version="1.0" encoding="utf-8"?>
<!-- Generator: Adobe Illustrator 25.4.1, SVG Export Plug-In . SVG Version: 6.00 Build 0)  -->
<svg version="1.1" id="Layer_1" xmlns="http://www.w3.org/2000/svg" xmlns:xlink="http://www.w3.org/1999/xlink" x="0px" y="0px"
	 width="80px" height="80px" viewBox="0 0 80 80" style="enable-background:new 0 0 80 80;" xml:space="preserve">
<style type="text/css">
	.st0{fill:#FF6D66;}
	.st1{fill:#F9F9F9;}
</style>
<g>
	<circle class="st0" cx="40" cy="40" r="40"/>
	<g>
		<path class="st1" d="M47.3,40c0,0.4,0,11.5,0,16.7c0,3.8-2.5,6.8-6.2,7.4c-4.1,0.7-8.1-2.4-8.4-6.6c-0.1-1.2,0-17.1-0.2-17.5
			c-0.7,0.7-1.4,1.5-2.1,2.2c-1,1-2.1,1.7-3.5,2c-3.8,1-7.8-1.7-8.2-5.7c-0.2-2.1,0.4-3.9,1.9-5.4c5.3-5.4,10.7-10.7,16-16
			c1.9-1.9,4.5-1.9,6.5,0c5.4,5.3,10.7,10.7,16,16c3,3,2.6,7.8-0.8,10.1c-2.7,1.8-6.3,1.5-8.6-0.8C49,41.8,48.3,40.9,47.3,40z"/>
	</g>
</g>
</svg>
